# xmcd
#
# Track frame offsets:
#	150
#	13900
#	24167
#	39482
#	54752
#	68840
#	79972
#	94027
#	109810
#	126950
#
# Disc length: 1847 seconds
#
# Revision: 1
# Processed by: cddbd v1.5.2PL0 Copyright (c) Steve Scherf et al.
# Submitted via: audiograbber 1.83.01
#
DISCID=7807350a
DTITLE=Brenda Craft - The Man Or The Mainsion
DYEAR=1997
DGENRE=Country
TTITLE0=Losing From The Start
TTITLE1=Dansing Tonight
TTITLE2=Hook, Line, And Sinker
TTITLE3=S O S
TTITLE4=Sleeping All Alone
TTITLE5=The Man Or The Mainsion
TTITLE6=Memories Of You On My Mind
TTITLE7=I´ve Got A Dream
TTITLE8=Insted Of One There Are Two
TTITLE9=Hard Times
EXTD=
EXTT0=
EXTT1=
EXTT2=
EXTT3=
EXTT4=
EXTT5=
EXTT6=
EXTT7=
EXTT8=
EXTT9=
PLAYORDER=
